# xmcd
#
# Track frame offsets:
#	150
#	15295
#	37706
#	51862
#	73269
#	92815
#	117387
#
# Disc length: 2420 seconds
# Revision: 1
# Processed by: cddbd v1.5.2PL0 Copyright (c) Steve Scherf et al.
# Submitted via: dBpowerAMP V12.0
#
DISCID=52097207
DTITLE=Dżem - Absolutely Live 1986
DYEAR=1986
DGENRE=Blues
TTITLE0=Norweska impresja bluesowa
TTITLE1=Wiem, na pewno wiem - nie nie kocham Cię
TTITLE2=Poznałem go po czarnym kapeluszu
TTITLE3=Kiepska gra
TTITLE4=Blues Alabama
TTITLE5=Abym mógł przed siebie iść
TTITLE6=Niewinni i ja - cz. I i II
EXTD=
EXTT0=
EXTT1=
EXTT2=
EXTT3=
EXTT4=
EXTT5=
EXTT6=
PLAYORDER=
